<?xml version="1.0" encoding="UTF-8"?>
<svg width="24px" height="18px" viewBox="0 0 24 18" version="1.1" xmlns="http://www.w3.org/2000/svg" xmlns:xlink="http://www.w3.org/1999/xlink">
    <!-- Generator: Sketch 47.1 (45422) - http://www.bohemiancoding.com/sketch -->
    <title>global/flags/24x18/af</title>
    <desc>Created with Sketch.</desc>
    <defs>
        <path d="M1,1.11022302e-16 L23,1.11022302e-16 C23.5522847,-1.01453063e-16 24,0.44771525 24,1 L24,17 C24,17.5522847 23.5522847,18 23,18 L1,18 C0.44771525,18 6.76353751e-17,17.5522847 0,17 L1.11022302e-16,1 C-6.76353751e-17,0.44771525 0.44771525,1.01453063e-16 1,1.11022302e-16 Z" id="path-1"></path>
        <path d="M1,1 L1,17 L23,17 L23,1 L1,1 Z M1,0 L23,0 C23.5522847,-1.01453063e-16 24,0.44771525 24,1 L24,17 C24,17.5522847 23.5522847,18 23,18 L1,18 C0.44771525,18 6.76353751e-17,17.5522847 0,17 L0,1 C-6.76353751e-17,0.44771525 0.44771525,1.01453063e-16 1,0 Z" id="path-3"></path>
    </defs>
    <g id="Flags" stroke="none" stroke-width="1" fill="none" fill-rule="evenodd">
        <g id="global/flags/24x18/af">
            <g id="global/flags/32x24/af">
                <mask id="mask-2" fill="white">
                    <use xlink:href="#path-1"></use>
                </mask>
                <use id="path4485" fill="#D32011" fill-rule="nonzero" xlink:href="#path-1"></use>
                <path d="M1,1.11022302e-16 L23,1.11022302e-16 C23.5522847,-1.01453063e-16 24,0.44771525 24,1 L24,17 C24,17.5522847 23.5522847,18 23,18 L1,18 C0.44771525,18 6.76353751e-17,17.5522847 0,17 L1.11022302e-16,1 C-6.76353751e-17,0.44771525 0.44771525,1.01453063e-16 1,1.11022302e-16 Z" id="path4485" fill="#D32011" fill-rule="nonzero" mask="url(#mask-2)"></path>
                <path d="M12,7.49801411 C12.8276959,7.49801411 13.4986761,7.57637202 13.4986761,6.74867607 C13.4986761,5.92098013 12.8276959,5.25 12,5.25 C11.1723041,5.25 10.5013239,5.92098013 10.5013239,6.74867607 C10.5013239,7.57637202 11.1723041,7.49801411 12,7.49801411 Z" id="Oval" fill="#FFFFFF" mask="url(#mask-2)"></path>
                <path d="M12,5.83602921 C12.3689343,5.83602921 12.6680146,6.20496349 12.6680146,5.83602921 C12.6680146,5.59007302 12.4453431,5.14472995 12,4.5 C11.5546569,5.14472995 11.3319854,5.59007302 11.3319854,5.83602921 C11.3319854,6.20496349 11.6310657,5.83602921 12,5.83602921 Z" id="Oval" fill="#FFFFFF" mask="url(#mask-2)"></path>
                <polygon id="path4487" fill="#000000" fill-rule="nonzero" mask="url(#mask-2)" points="0 0 8 0 8 18 0 18"></polygon>
                <polygon id="path4489" fill="#007A36" fill-rule="nonzero" mask="url(#mask-2)" points="16 0 24 0 24 18 16 18"></polygon>
                <polygon id="Rectangle" fill="#FFFFFF" mask="url(#mask-2)" points="9.75 10.5 14.25 10.5 15 11.25 9 11.25"></polygon>
                <polygon id="Rectangle" fill="#FFFFFF" mask="url(#mask-2)" points="9.75 7.5 14.25 7.5 15 6.75 9 6.75"></polygon>
                <polygon id="Rectangle-4" fill="#FFFFFF" mask="url(#mask-2)" points="11.25 9 12 9 12 10.5 11.25 10.5"></polygon>
                <polygon id="Rectangle-4" fill="#FFFFFF" mask="url(#mask-2)" points="12 9.75 12.75 9.75 12.75 10.5 12 10.5"></polygon>
                <path d="M9.75,6.75 L14.25,6.75 L14.25,10.5 L9.75,10.5 L9.75,6.75 Z M12,7.5 C11.1715729,7.5 10.5,8.17157288 10.5,9 L10.5,10.5 L13.5,10.5 L13.5,9 C13.5,8.17157288 12.8284271,7.5 12,7.5 Z" id="Combined-Shape" fill="#FFFFFF" mask="url(#mask-2)"></path>
                <polygon id="Rectangle" fill="#FFFFFF" mask="url(#mask-2)" points="13.5 5.25 14.25 6 14.25 6.75 13.5 6.75"></polygon>
                <polygon id="Rectangle" fill="#FFFFFF" mask="url(#mask-2)" points="9.75 6 10.5 5.25 10.5 6.75 9.75 6.75"></polygon>
                <path d="M9.03281979,3.033846 C9.90788298,2.53499801 10.9206591,2.25 12,2.25 C13.0793409,2.25 14.092117,2.53499801 14.9671802,3.033846 L14.3431666,3.6574231 C13.6606651,3.24034972 12.8584009,3 12,3 C11.1415991,3 10.3393349,3.24034972 9.65683335,3.6574231 L9.03281979,3.033846 Z M7.5,8.25 C7.5,10.32236 8.90085659,12.0675324 10.8072874,12.5902349 C11.0813666,12.2314605 11.513653,12 12,12 C12.486347,12 12.9186334,12.2314605 13.1927126,12.5902349 C15.0991434,12.0675324 16.5,10.32236 16.5,8.25 C16.5,6.81581751 15.8290779,5.53833727 14.7839748,4.71430038 L15.425451,4.07327284 C16.9816251,5.15727734 18,6.95971157 18,9 C18,12.3137085 15.3137085,15 12,15 C8.6862915,15 6,12.3137085 6,9 C6,6.95971157 7.01837486,5.15727734 8.57454902,4.07327284 L9.21602524,4.71430038 C8.17092211,5.53833727 7.5,6.81581751 7.5,8.25 Z M12,13.499338 C12.4142136,13.499338 12.75,13.5254573 12.75,13.2495587 C12.75,12.97366 12.4142136,12.75 12,12.75 C11.5857864,12.75 11.25,12.97366 11.25,13.2495587 C11.25,13.5254573 11.5857864,13.499338 12,13.499338 Z" id="Combined-Shape" fill="#FFFFFF" mask="url(#mask-2)"></path>
                <polygon id="Rectangle-2" fill="#FFFFFF" mask="url(#mask-2)" points="17.25 15 14.25 15 14.25 13.5 15.5 13.5"></polygon>
                <polygon id="Rectangle-2" fill="#FFFFFF" mask="url(#mask-2)" points="6.75 15 9.75 15 9.75 13.5 8.5 13.5"></polygon>
                <polygon id="Path-3" fill="#FFFFFF" mask="url(#mask-2)" points="9.7461535 9.00740732 8.98261872 7.5 8.25 9.75"></polygon>
                <polygon id="Path-3" fill="#FFFFFF" mask="url(#mask-2)" points="14.25 9.00740732 15.0135348 7.5 15.7461535 9.75"></polygon>
                <mask id="mask-4" fill="white">
                    <use xlink:href="#path-3"></use>
                </mask>
                <use id="stroke" fill="#000000" fill-rule="nonzero" opacity="0.200000003" xlink:href="#path-3"></use>
            </g>
        </g>
    </g>
</svg>