<svg xmlns="http://www.w3.org/2000/svg" width="24" height="18" viewBox="0 0 24 18">
  <g fill="none" fill-rule="evenodd">
    <path fill="#F02532" d="M1,0 L23,0 C23.5522847,-1.01453063e-16 24,0.44771525 24,1 L24,17 C24,17.5522847 23.5522847,18 23,18 L1,18 C0.44771525,18 6.76353751e-17,17.5522847 0,17 L0,1 C-6.76353751e-17,0.44771525 0.44771525,1.01453063e-16 1,0 Z"/>
    <path fill="#3B9D2E" d="M0,12 L24,12 L24,17 C24,17.5522847 23.5522847,18 23,18 L1,18 C0.44771525,18 6.76353751e-17,17.5522847 0,17 L0,12 Z"/>
    <path fill="#00B8E6" d="M0,0 L24,0 L24,5 C24,5.55228475 23.5522847,6 23,6 L1,6 C0.44771525,6 6.76353751e-17,5.55228475 0,5 L0,0 Z" transform="matrix(1 0 0 -1 0 6)"/>
    <path fill="#000" fill-rule="nonzero" d="M1,1 L1,17 L23,17 L23,1 L1,1 Z M1,0 L23,0 C23.5522847,-1.01453063e-16 24,0.44771525 24,1 L24,17 C24,17.5522847 23.5522847,18 23,18 L1,18 C0.44771525,18 6.76353751e-17,17.5522847 0,17 L0,1 C-6.76353751e-17,0.44771525 0.44771525,1.01453063e-16 1,0 Z" opacity=".2"/>
    <circle cx="14" cy="9" r="1" fill="#FFF"/>
    <path fill="#FFF" d="M12.8,6.69766128 C12.2703278,6.24466388 11.5826178,5.97109411 10.8310122,5.97109411 C9.15703037,5.97109411 7.79999995,7.32812452 7.79999995,9.00210637 C7.79999995,10.6760882 9.15703037,12.0331186 10.8310122,12.0331186 C11.5826178,12.0331186 12.2703278,11.7595489 12.8,11.3065515 C12.5619329,11.3846651 12.3076091,11.4269162 12.0434171,11.4269162 C10.7042316,11.4269162 9.61860731,10.3412919 9.61860731,9.00210637 C9.61860731,7.66292089 10.7042316,6.57729656 12.0434171,6.57729656 C12.3076091,6.57729656 12.5619329,6.6195476 12.8,6.69766128 Z"/>
  </g>
</svg>
