<?xml version="1.0" encoding="UTF-8"?>
<svg width="24px" height="18px" viewBox="0 0 24 18" version="1.1" xmlns="http://www.w3.org/2000/svg" xmlns:xlink="http://www.w3.org/1999/xlink">
    <!-- Generator: Sketch 47.1 (45422) - http://www.bohemiancoding.com/sketch -->
    <title>global/flags/24x18/cm</title>
    <desc>Created with Sketch.</desc>
    <defs>
        <rect id="path-1" x="0" y="0" width="24" height="18" rx="1"></rect>
        <path d="M1,1 L1,17 L23,17 L23,1 L1,1 Z M1,0 L23,0 C23.5522847,-1.01453063e-16 24,0.44771525 24,1 L24,17 C24,17.5522847 23.5522847,18 23,18 L1,18 C0.44771525,18 6.76353751e-17,17.5522847 0,17 L0,1 C-6.76353751e-17,0.44771525 0.44771525,1.01453063e-16 1,0 Z" id="path-3"></path>
    </defs>
    <g id="Flags" stroke="none" stroke-width="1" fill="none" fill-rule="evenodd">
        <g id="global/flags/24x18/cm">
            <g id="global/flags/32x24/cm">
                <mask id="mask-2" fill="white">
                    <use xlink:href="#path-1"></use>
                </mask>
                <g id="Rectangle-3">
                    <use fill="#D8D8D8" fill-rule="evenodd" xlink:href="#path-1"></use>
                    <rect stroke="#979797" stroke-width="1" x="0.5" y="0.5" width="23" height="17" rx="1"></rect>
                </g>
                <g id="Flag_of_Cameroon" mask="url(#mask-2)" fill-rule="nonzero">
                    <rect id="Rectangle-path" fill="#007A5E" x="0" y="0" width="8" height="18"></rect>
                    <rect id="Rectangle-path" fill="#CE1126" x="8" y="0" width="8" height="18"></rect>
                    <rect id="Rectangle-path" fill="#FCD116" x="16" y="0" width="8" height="18"></rect>
                </g>
                <polygon id="Fill-1" fill="#FFFFFF" mask="url(#mask-2)" points="15 8.17398375 12.72 8.17398375 12 6.01398375 11.28 8.17398375 9 8.17398375 10.86 9.55398375 10.14 11.7139838 12 10.3939838 13.86 11.7139838 13.14 9.55398375"></polygon>
            </g>
            <mask id="mask-4" fill="white">
                <use xlink:href="#path-3"></use>
            </mask>
            <use id="stroke" fill="#000000" fill-rule="nonzero" opacity="0.200000003" xlink:href="#path-3"></use>
        </g>
    </g>
</svg>