<svg xmlns="http://www.w3.org/2000/svg" width="24" height="18" viewBox="0 0 24 18">
  <g fill="none" fill-rule="evenodd">
    <path fill="#FFF" d="M1,0 L23,0 C23.5522847,-1.01453063e-16 24,0.44771525 24,1 L24,17 C24,17.5522847 23.5522847,18 23,18 L1,18 C0.44771525,18 6.76353751e-17,17.5522847 0,17 L0,1 C-6.76353751e-17,0.44771525 0.44771525,1.01453063e-16 1,0 Z"/>
    <circle cx="12" cy="9" r="2" fill="#148432"/>
    <circle cx="12" cy="9" r="1" fill="#FFF"/>
    <path fill="#002D63" d="M1,0 L10,0 L10,7 L0,7 L0,1 C-6.76353751e-17,0.44771525 0.44771525,1.01453063e-16 1,0 Z"/>
    <path fill="#CF001B" d="M1,11 L10,11 L10,18 L0,18 L0,12 C-6.76353751e-17,11.4477153 0.44771525,11 1,11 Z" transform="matrix(1 0 0 -1 0 29)"/>
    <path fill="#CF001B" d="M15,0 L24,0 L24,7 L14,7 L14,1 C14,0.44771525 14.4477153,1.01453063e-16 15,0 Z" transform="matrix(-1 0 0 1 38 0)"/>
    <path fill="#002D63" d="M15,11 L24,11 L24,18 L14,18 L14,12 C14,11.4477153 14.4477153,11 15,11 Z" transform="rotate(180 19 14.5)"/>
    <path fill="#000" fill-rule="nonzero" d="M1,1 L1,17 L23,17 L23,1 L1,1 Z M1,0 L23,0 C23.5522847,-1.01453063e-16 24,0.44771525 24,1 L24,17 C24,17.5522847 23.5522847,18 23,18 L1,18 C0.44771525,18 6.76353751e-17,17.5522847 0,17 L0,1 C-6.76353751e-17,0.44771525 0.44771525,1.01453063e-16 1,0 Z" opacity=".2"/>
  </g>
</svg>
