<svg xmlns="http://www.w3.org/2000/svg" width="24" height="18" viewBox="0 0 24 18">
  <g fill="none" fill-rule="evenodd">
    <path fill="#FCD30F" d="M1,0 L23,0 C23.5522847,-1.01453063e-16 24,0.44771525 24,1 L24,17 C24,17.5522847 23.5522847,18 23,18 L1,18 C0.44771525,18 6.76353751e-17,17.5522847 0,17 L0,1 C-6.76353751e-17,0.44771525 0.44771525,1.01453063e-16 1,0 Z"/>
    <path fill="#CF0820" d="M0,14 L24,14 L24,17 C24,17.5522847 23.5522847,18 23,18 L1,18 C0.44771525,18 6.76353751e-17,17.5522847 0,17 L0,14 Z"/>
    <polygon fill="#003594" points="0 10 24 10 24 14 0 14"/>
    <path fill="#000" fill-rule="nonzero" d="M1,1 L1,17 L23,17 L23,1 L1,1 Z M1,0 L23,0 C23.5522847,-1.01453063e-16 24,0.44771525 24,1 L24,17 C24,17.5522847 23.5522847,18 23,18 L1,18 C0.44771525,18 6.76353751e-17,17.5522847 0,17 L0,1 C-6.76353751e-17,0.44771525 0.44771525,1.01453063e-16 1,0 Z" opacity=".2"/>
    <path fill="#FCD30F" d="M9,9 L15,9 L15,10 C15,11.1045695 14.1045695,12 13,12 L11,12 C9.8954305,12 9,11.1045695 9,10 L9,9 Z"/>
    <rect width="4" height="7" x="10" y="7" fill="#12A9D3" rx="2"/>
    <path fill="#019E4A" d="M10,11 L14,11 L14,12 C14,13.1045695 13.1045695,14 12,14 L12,14 C10.8954305,14 10,13.1045695 10,12 L10,11 Z"/>
    <polygon fill="#533820" points="12 9 9 6 15 6"/>
  </g>
</svg>
