<svg xmlns="http://www.w3.org/2000/svg" width="24" height="18" viewBox="0 0 24 18">
  <g fill="none" fill-rule="evenodd">
    <path fill="#019E4A" d="M1,0 L23,0 C23.5522847,-1.01453063e-16 24,0.44771525 24,1 L24,17 C24,17.5522847 23.5522847,18 23,18 L1,18 C0.44771525,18 6.76353751e-17,17.5522847 0,17 L0,1 C-6.76353751e-17,0.44771525 0.44771525,1.01453063e-16 1,0 Z"/>
    <path fill="#FFF" d="M0.432121002,17.8232232 C0.171051625,17.6427893 4.18058022e-17,17.3413703 0,17 L0,1 C-4.18058022e-17,0.658629719 0.171051625,0.357210685 0.432121002,0.176776773 L22,9 L0.432121002,17.8232232 Z"/>
    <polygon fill="#FDD000" points="19.067 9 0 16.5 0 1.5"/>
    <polygon fill="#000" points="11 9 0 16.5 0 1.5"/>
    <polygon fill="#CF001B" points="9 9 0 15 0 3"/>
    <path fill="#000" fill-rule="nonzero" d="M1,1 L1,17 L23,17 L23,1 L1,1 Z M1,0 L23,0 C23.5522847,-1.01453063e-16 24,0.44771525 24,1 L24,17 C24,17.5522847 23.5522847,18 23,18 L1,18 C0.44771525,18 6.76353751e-17,17.5522847 0,17 L0,1 C-6.76353751e-17,0.44771525 0.44771525,1.01453063e-16 1,0 Z" opacity=".2"/>
  </g>
</svg>
