<svg xmlns="http://www.w3.org/2000/svg" width="24" height="18" viewBox="0 0 24 18">
  <g fill="none" fill-rule="evenodd">
    <path fill="#009C36" d="M1,0 L23,0 C23.5522847,-1.01453063e-16 24,0.44771525 24,1 L24,17 C24,17.5522847 23.5522847,18 23,18 L1,18 C0.44771525,18 6.76353751e-17,17.5522847 0,17 L0,1 C-6.76353751e-17,0.44771525 0.44771525,1.01453063e-16 1,0 Z"/>
    <path fill="#2E2E2E" d="M12,9 L0,17 L0,1 L12,9 Z M12,9 L24,1 L24,17 L12,9 Z"/>
    <path fill="#FFD000" d="M0,1.6875 L0,1 C-6.76353751e-17,0.44771525 0.44771525,1.01453063e-16 1,0 L2.25,0 L12,7.3125 L21.75,0 L23,0 C23.5522847,-1.01453063e-16 24,0.44771525 24,1 L24,1.6875 L14.25,9 L24,16.3125 L24,17 C24,17.5522847 23.5522847,18 23,18 L21.75,18 L12,10.6875 L2.25,18 L1,18 C0.44771525,18 6.76353751e-17,17.5522847 0,17 L0,16.3125 L9.75,9 L0,1.6875 Z"/>
    <path fill="#000" fill-rule="nonzero" d="M1,1 L1,17 L23,17 L23,1 L1,1 Z M1,0 L23,0 C23.5522847,-1.01453063e-16 24,0.44771525 24,1 L24,17 C24,17.5522847 23.5522847,18 23,18 L1,18 C0.44771525,18 6.76353751e-17,17.5522847 0,17 L0,1 C-6.76353751e-17,0.44771525 0.44771525,1.01453063e-16 1,0 Z" opacity=".2"/>
  </g>
</svg>
