<svg xmlns="http://www.w3.org/2000/svg" width="24" height="18" viewBox="0 0 24 18">
  <g fill="none" fill-rule="evenodd">
    <path fill="#D20000" d="M1,0 L23,0 C23.5522847,-1.01453063e-16 24,0.44771525 24,1 L24,17 C24,17.5522847 23.5522847,18 23,18 L1,18 C0.44771525,18 6.76353751e-17,17.5522847 0,17 L0,1 C-6.76353751e-17,0.44771525 0.44771525,1.01453063e-16 1,0 Z"/>
    <path fill="#FFE600" d="M10.5,3.55271368e-15 L13.5,3.55271368e-15 L12.75,5.25 L11.25,5.25 L10.5,3.55271368e-15 Z M3.55271368e-15,1.51584233 L3.55271368e-15,1 C3.4850783e-15,0.44771525 0.44771525,3.65416674e-15 1,3.55271368e-15 L3.07952329,3.55271368e-15 L9.777759,5.80368544 L9.0182463,6.89626949 L6.21724894e-15,1.51584233 Z M3.31266099,18 L1,18 C0.44771525,18 3.62034905e-15,17.5522847 3.55271368e-15,17 L3.55271368e-15,16.6861598 L9.0182463,11.3057326 L9.777759,12.3983167 L3.31266099,18 Z M21.3097738,3.55271368e-15 L23,3.55271368e-15 C23.5522847,3.45126062e-15 24,0.44771525 24,1 L24,1.74810309 L15.3710508,6.89626949 L14.6115381,5.80368544 L21.3097738,3.55271368e-15 Z M24,16.453899 L24,17 C24,17.5522847 23.5522847,18 23,18 L21.0766361,18 L14.6115381,12.3983167 L15.3710508,11.3057326 L24,16.453899 Z M13.5,18 L10.5,18 L11.25,12.75 L12.75,12.75 L13.5,18 Z M3.55271368e-15,10.5 L3.55271368e-15,7.5 L8.25,8.25 L8.25,9.75 L3.55271368e-15,10.5 Z M24,7.5 L24,10.5 L15.75,9.75 L15.75,8.25 L24,7.5 Z"/>
    <circle cx="12" cy="9" r="5" fill="#D20000"/>
    <circle cx="12" cy="9" r="3" fill="#FFE600"/>
    <path fill="#000" fill-rule="nonzero" d="M1,1 L1,17 L23,17 L23,1 L1,1 Z M1,0 L23,0 C23.5522847,-1.01453063e-16 24,0.44771525 24,1 L24,17 C24,17.5522847 23.5522847,18 23,18 L1,18 C0.44771525,18 6.76353751e-17,17.5522847 0,17 L0,1 C-6.76353751e-17,0.44771525 0.44771525,1.01453063e-16 1,0 Z" opacity=".2"/>
  </g>
</svg>
