<svg xmlns="http://www.w3.org/2000/svg" width="24" height="18" viewBox="0 0 24 18">
  <g fill="none" fill-rule="evenodd">
    <path fill="#F7F7F7" d="M1,0 L23,0 C23.5522847,-1.01453063e-16 24,0.44771525 24,1 L24,17 C24,17.5522847 23.5522847,18 23,18 L1,18 C0.44771525,18 6.76353751e-17,17.5522847 0,17 L0,1 C-6.76353751e-17,0.44771525 0.44771525,1.01453063e-16 1,0 Z"/>
    <path fill="#000" fill-rule="nonzero" d="M1,1 L1,17 L23,17 L23,1 L1,1 Z M1,0 L23,0 C23.5522847,-1.01453063e-16 24,0.44771525 24,1 L24,17 C24,17.5522847 23.5522847,18 23,18 L1,18 C0.44771525,18 6.76353751e-17,17.5522847 0,17 L0,1 C-6.76353751e-17,0.44771525 0.44771525,1.01453063e-16 1,0 Z" opacity=".2"/>
    <path fill="#D3002D" d="M24,1 L24,9 L12,9 L12,0 L23,0 C23.5522847,-1.01453063e-16 24,0.44771525 24,1 Z"/>
    <path fill="#005295" d="M12,9 L12,18 L1,18 C0.44771525,18 6.76353751e-17,17.5522847 0,17 L0,9 L12,9 Z"/>
    <circle cx="6" cy="5" r="1" fill="#005295"/>
    <circle cx="18" cy="13" r="1" fill="#D3002D"/>
  </g>
</svg>
