<svg xmlns="http://www.w3.org/2000/svg" width="24" height="18" viewBox="0 0 24 18">
  <g fill="none" fill-rule="evenodd">
    <path fill="#F7F7F7" d="M1,0 L23,0 C23.5522847,-1.01453063e-16 24,0.44771525 24,1 L24,17 C24,17.5522847 23.5522847,18 23,18 L1,18 C0.44771525,18 6.76353751e-17,17.5522847 0,17 L0,1 C-6.76353751e-17,0.44771525 0.44771525,1.01453063e-16 1,0 Z"/>
    <path fill="#EF0000" d="M1,0 L23,0 C23.5522847,-1.01453063e-16 24,0.44771525 24,1 L24,4 L0,4 L0,1 C-6.76353751e-17,0.44771525 0.44771525,1.01453063e-16 1,0 Z"/>
    <rect width="24" height="4" y="7" fill="#EF0000"/>
    <path fill="#EF0000" d="M0,14 L24,14 L24,17 C24,17.5522847 23.5522847,18 23,18 L1,18 C0.44771525,18 6.76353751e-17,17.5522847 0,17 L0,14 Z"/>
    <path fill="#0050F4" d="M0.331569971,17.7437868 C0.128010664,17.5607311 3.616563e-17,17.2953148 0,17 L0,1 C-3.616563e-17,0.70468522 0.128010664,0.439268933 0.331569971,0.25621316 L11.6470588,9 L0.331569971,17.7437868 Z"/>
    <path fill="#000" fill-rule="nonzero" d="M1,1 L1,17 L23,17 L23,1 L1,1 Z M1,0 L23,0 C23.5522847,-1.01453063e-16 24,0.44771525 24,1 L24,17 C24,17.5522847 23.5522847,18 23,18 L1,18 C0.44771525,18 6.76353751e-17,17.5522847 0,17 L0,1 C-6.76353751e-17,0.44771525 0.44771525,1.01453063e-16 1,0 Z" opacity=".2"/>
    <polygon fill="#F7F7F7" points="4.775 10.146 3.151 11 3.461 9.191 2.147 7.91 3.963 7.646 4.775 6 5.588 7.646 7.404 7.91 6.09 9.191 6.4 11"/>
  </g>
</svg>
