<svg xmlns="http://www.w3.org/2000/svg" width="24" height="18" viewBox="0 0 24 18">
  <g fill="none" fill-rule="evenodd">
    <path fill="#B50229" d="M1,0 L23,0 C23.5522847,-1.01453063e-16 24,0.44771525 24,1 L24,17 C24,17.5522847 23.5522847,18 23,18 L1,18 C0.44771525,18 6.76353751e-17,17.5522847 0,17 L0,1 C-6.76353751e-17,0.44771525 0.44771525,1.01453063e-16 1,0 Z"/>
    <path fill="#347F3D" d="M0 12L24 12 24 17C24 17.5522847 23.5522847 18 23 18L1 18C.44771525 18 6.76353751e-17 17.5522847 0 17L0 12zM1 0L23 0C23.5522847-1.01453063e-16 24 .44771525 24 1L24 6 0 6 0 1C-6.76353751e-17.44771525.44771525 1.01453063e-16 1 0z"/>
    <rect width="24" height="2" y="4" fill="#F7F7F7"/>
    <rect width="24" height="2" y="12" fill="#F7F7F7"/>
    <path fill="#000" fill-rule="nonzero" d="M1,1 L1,17 L23,17 L23,1 L1,1 Z M1,0 L23,0 C23.5522847,-1.01453063e-16 24,0.44771525 24,1 L24,17 C24,17.5522847 23.5522847,18 23,18 L1,18 C0.44771525,18 6.76353751e-17,17.5522847 0,17 L0,1 C-6.76353751e-17,0.44771525 0.44771525,1.01453063e-16 1,0 Z" opacity=".2"/>
    <polygon fill="#FAE400" points="12 11 9.649 12.236 10.098 9.618 8.196 7.764 10.824 7.382 12 5 13.176 7.382 15.804 7.764 13.902 9.618 14.351 12.236"/>
  </g>
</svg>
