<svg xmlns="http://www.w3.org/2000/svg" width="24" height="18" viewBox="0 0 24 18">
  <g fill="none" fill-rule="evenodd">
    <path fill="#DC092D" d="M1,0 L23,0 C23.5522847,-1.01453063e-16 24,0.44771525 24,1 L24,17 C24,17.5522847 23.5522847,18 23,18 L1,18 C0.44771525,18 6.76353751e-17,17.5522847 0,17 L0,1 C-6.76353751e-17,0.44771525 0.44771525,1.01453063e-16 1,0 Z"/>
    <path fill="#000" fill-rule="nonzero" d="M1,1 L1,17 L23,17 L23,1 L1,1 Z M1,0 L23,0 C23.5522847,-1.01453063e-16 24,0.44771525 24,1 L24,17 C24,17.5522847 23.5522847,18 23,18 L1,18 C0.44771525,18 6.76353751e-17,17.5522847 0,17 L0,1 C-6.76353751e-17,0.44771525 0.44771525,1.01453063e-16 1,0 Z" opacity=".2"/>
    <path fill="#FFF" d="M5.87258332,0 L24,13.1703391 L24,17 C24,17.5522847 23.5522847,18 23,18 L18.7383466,18 L3.55271368e-15,4.38579431 L0,1 C-6.76353751e-17,0.44771525 0.44771525,1.01453063e-16 1,0 L5.87258332,0 Z"/>
    <path fill="#000" d="M2.46998009,0 L24,15.6424751 L24,17 C24,17.5522847 23.5522847,18 23,18 L22.1409498,18 L0,1.91365836 L3.55271368e-15,1 C3.4850783e-15,0.44771525 0.44771525,3.23497668e-16 1,2.22044605e-16 L2.46998009,0 Z"/>
  </g>
</svg>
