<svg xmlns="http://www.w3.org/2000/svg" width="24" height="18" viewBox="0 0 24 18">
  <g fill="none" fill-rule="evenodd">
    <path fill="#F7F7F7" d="M1,0 L23,0 C23.5522847,-1.01453063e-16 24,0.44771525 24,1 L24,17 C24,17.5522847 23.5522847,18 23,18 L1,18 C0.44771525,18 6.76353751e-17,17.5522847 0,17 L0,1 C-6.76353751e-17,0.44771525 0.44771525,1.01453063e-16 1,0 Z"/>
    <path fill="#0035AA" d="M10,6 L24,6 L24,8 L10,8 L10,6 Z M10,2 L24,2 L24,4 L10,4 L10,2 Z M0,10 L24,10 L24,12 L0,12 L0,10 Z M0,14 L24,14 L24,16 L0,16 L0,14 Z"/>
    <path fill="#000" fill-rule="nonzero" d="M1,1 L1,17 L23,17 L23,1 L1,1 Z M1,0 L23,0 C23.5522847,-1.01453063e-16 24,0.44771525 24,1 L24,17 C24,17.5522847 23.5522847,18 23,18 L1,18 C0.44771525,18 6.76353751e-17,17.5522847 0,17 L0,1 C-6.76353751e-17,0.44771525 0.44771525,1.01453063e-16 1,0 Z" opacity=".2"/>
    <g transform="translate(2 2)">
      <circle cx="3.5" cy="3.5" r="2.8" fill="#FFCD02"/>
      <path fill="#A87F12" fill-rule="nonzero" d="M3.5,7 C1.56700338,7 0,5.43299662 0,3.5 C0,1.56700338 1.56700338,0 3.5,0 C5.43299662,0 7,1.56700338 7,3.5 C7,5.43299662 5.43299662,7 3.5,7 Z M3.5,5.6 C4.65979797,5.6 5.6,4.65979797 5.6,3.5 C5.6,2.34020203 4.65979797,1.4 3.5,1.4 C2.34020203,1.4 1.4,2.34020203 1.4,3.5 C1.4,4.65979797 2.34020203,5.6 3.5,5.6 Z"/>
    </g>
  </g>
</svg>
